<svg width="20" height="21" viewBox="0 0 20 21" fill="none" xmlns="http://www.w3.org/2000/svg">
<path d="M9.7743 17.3086C7.88991 17.3086 6.00553 17.0093 4.21819 16.4109C3.53884 16.1763 3.02124 15.6992 2.79479 15.0764C2.56026 14.4537 2.64113 13.7663 3.01316 13.1516L3.94322 11.6069C4.13732 11.2834 4.31524 10.6364 4.31524 10.2563L4.31524 7.91901C4.31524 4.91047 6.76575 2.45996 9.7743 2.45996C12.7828 2.45996 15.2333 4.91047 15.2333 7.91901V10.2563C15.2333 10.6283 15.4113 11.2834 15.6054 11.615L16.5273 13.1516C16.8751 13.7339 16.9398 14.4375 16.7053 15.0764C16.4707 15.7154 15.9612 16.2006 15.3223 16.4109C13.5431 17.0093 11.6587 17.3086 9.7743 17.3086ZM9.7743 3.67308C7.43701 3.67308 5.52836 5.57364 5.52836 7.91901L5.52836 10.2563C5.52836 10.8467 5.28574 11.7201 4.9865 12.2296L4.05644 13.7744C3.87852 14.0736 3.82999 14.389 3.93513 14.6559C4.03218 14.9309 4.2748 15.1411 4.60639 15.2544C7.98696 16.3866 11.5697 16.3866 14.9503 15.2544C15.2414 15.1573 15.4679 14.939 15.573 14.6478C15.6782 14.3567 15.6539 14.0412 15.4921 13.7744L14.5621 12.2296C14.2548 11.704 14.0202 10.8386 14.0202 10.2482V7.91901C14.0202 5.57364 12.1197 3.67308 9.7743 3.67308Z" fill="#1E1E1E"/>
<path d="M11.2785 3.89157C11.2219 3.89157 11.1653 3.88348 11.1087 3.86731C10.8741 3.80261 10.6477 3.75408 10.4293 3.72173C9.74187 3.63277 9.07869 3.6813 8.45596 3.86731C8.22951 3.94009 7.98688 3.86731 7.83322 3.69747C7.67956 3.52763 7.63103 3.28501 7.72 3.06665C8.05158 2.21746 8.86033 1.65942 9.7823 1.65942C10.7043 1.65942 11.513 2.20937 11.8446 3.06665C11.9255 3.28501 11.8851 3.52763 11.7314 3.69747C11.6101 3.82687 11.4402 3.89157 11.2785 3.89157Z" fill="#1E1E1E"/>
<path d="M9.77426 19.1527C8.9736 19.1527 8.1972 18.8292 7.63108 18.2631C7.06495 17.6969 6.74146 16.9205 6.74146 16.1199H7.95458C7.95458 16.597 8.14868 17.0661 8.48835 17.4058C8.82803 17.7455 9.2971 17.9396 9.77426 17.9396C10.7771 17.9396 11.5939 17.1227 11.5939 16.1199H12.8071C12.8071 17.794 11.4484 19.1527 9.77426 19.1527Z" fill="#1E1E1E"/>
<circle cx="13.7875" cy="4.88199" r="3.88199" fill="#00B85E"/>
</svg>
