<svg width="24" height="24" viewBox="0 0 24 24" fill="none" xmlns="http://www.w3.org/2000/svg">
<path d="M22 18.3299C22 18.6899 21.92 19.0599 21.75 19.4199C21.58 19.7799 21.36 20.1199 21.07 20.4399C20.58 20.9799 20.04 21.3699 19.43 21.6199C18.83 21.8699 18.17 21.9999 17.47 21.9999C16.45 21.9999 15.36 21.7599 14.21 21.2699C13.06 20.7799 11.9 20.1199 10.76 19.2899C10.18 18.8599 9.60997 18.4199 9.05997 17.9399L12.32 14.6799C12.33 14.6799 12.33 14.6799 12.34 14.6899C12.86 15.1299 13.29 15.4299 13.63 15.6099C13.68 15.6299 13.74 15.6599 13.81 15.6899C13.89 15.7199 13.97 15.7299 14.06 15.7299C14.23 15.7299 14.36 15.6699 14.47 15.5599L15.23 14.8099C15.48 14.5599 15.72 14.3699 15.95 14.2499C16.18 14.1099 16.41 14.0399 16.66 14.0399C16.85 14.0399 17.05 14.0799 17.27 14.1699C17.49 14.2599 17.72 14.3899 17.97 14.5599L21.29 16.9099C21.55 17.0899 21.73 17.2999 21.84 17.5499C21.94 17.7999 22 18.0499 22 18.3299Z" fill="#292D32"/>
<path d="M14.421 16.9473L11.2631 19.4736C11.2531 19.4736 9.27946 18.2894 9.26946 18.2794C8.23946 17.2394 7.30946 16.1494 6.46946 15.0094C5.65946 13.8894 5.00946 12.7594 4.52946 11.6494C4.51946 11.6294 4.51946 11.6194 4.50946 11.5994C4.02946 10.4594 3.78946 9.36943 3.78946 8.32943C3.78946 7.64943 3.90946 6.99943 4.14946 6.39943C4.34946 5.88943 4.64946 5.40943 5.05946 4.97943C5.12946 4.89943 5.20946 4.80943 5.29946 4.72943C5.45946 4.56943 5.61946 4.42943 5.78946 4.31943C5.79946 4.31943 5.79946 4.31943 5.79946 4.31943C6.29946 3.95943 6.82946 3.78943 7.38946 3.78943C7.66946 3.78943 7.94946 3.84943 8.19946 3.96943C8.43946 4.07943 8.64946 4.23943 8.81946 4.46943C8.83946 4.48943 8.84946 4.50943 8.86946 4.52943L11.1895 7.79943C11.3695 8.04943 11.4995 8.27943 11.5895 8.49943C11.6795 8.70943 11.7295 8.91943 11.7295 9.10943C11.7295 9.34943 11.6595 9.58943 11.5195 9.81943C11.3895 10.0494 11.1995 10.2894 10.9595 10.5294L10.1995 11.3194C10.0895 11.4294 10.0395 11.5594 10.0395 11.7194C10.0395 11.7994 10.0495 11.8694 10.0695 11.9494C10.0995 12.0294 10.1295 12.0894 10.1495 12.1494C10.3295 12.4794 10.6395 12.9094 11.0795 13.4294C11.5295 13.9494 12.0095 14.4794 12.5295 15.0094C12.5395 15.0194 14.411 16.9373 14.421 16.9473Z" fill="#292D32"/>
</svg>
