<svg width="15" height="15" viewBox="0 0 15 15" fill="none" xmlns="http://www.w3.org/2000/svg">
<path d="M13.75 11.4562C13.75 11.6812 13.7 11.9124 13.5937 12.1374C13.4875 12.3624 13.35 12.5749 13.1687 12.7749C12.8625 13.1124 12.525 13.3562 12.1437 13.5124C11.7687 13.6687 11.3562 13.7499 10.9187 13.7499C10.2812 13.7499 9.59998 13.5999 8.88123 13.2937C8.16248 12.9874 7.43748 12.5749 6.72498 12.0562C6.36248 11.7874 6.00623 11.5124 5.66248 11.2124L7.69998 9.1749C7.70623 9.1749 7.70623 9.1749 7.71248 9.18115C8.03748 9.45615 8.30623 9.64365 8.51873 9.75615C8.54998 9.76865 8.58748 9.7874 8.63123 9.80615C8.68123 9.8249 8.73123 9.83115 8.78748 9.83115C8.89373 9.83115 8.97498 9.79365 9.04373 9.7249L9.51872 9.25615C9.67497 9.0999 9.82498 8.98115 9.96873 8.90615C10.1125 8.81865 10.2562 8.7749 10.4125 8.7749C10.5312 8.7749 10.6562 8.7999 10.7937 8.85615C10.9312 8.9124 11.075 8.99365 11.2312 9.0999L13.3062 10.5687C13.4687 10.6812 13.5812 10.8124 13.65 10.9687C13.7125 11.1249 13.75 11.2812 13.75 11.4562Z" fill="#292D32"/>
<path d="M9.01314 10.5921L7.03945 12.171C7.0332 12.171 5.79966 11.4309 5.79341 11.4247C5.14966 10.7747 4.56841 10.0934 4.04341 9.38091C3.53716 8.68091 3.13091 7.97466 2.83091 7.28091C2.82466 7.26841 2.82466 7.26216 2.81841 7.24966C2.51841 6.53716 2.36841 5.85591 2.36841 5.20591C2.36841 4.78091 2.44341 4.37466 2.59341 3.99966C2.71841 3.68091 2.90591 3.38091 3.16216 3.11216C3.20591 3.06216 3.25591 3.00591 3.31216 2.95591C3.41216 2.85591 3.51216 2.76841 3.61841 2.69966C3.62466 2.69966 3.62466 2.69966 3.62466 2.69966C3.93716 2.47466 4.26841 2.36841 4.61841 2.36841C4.79341 2.36841 4.96841 2.40591 5.12466 2.48091C5.27466 2.54966 5.40591 2.64966 5.51216 2.79341C5.52466 2.80591 5.53091 2.81841 5.54341 2.83091L6.99341 4.87466C7.10591 5.03091 7.18716 5.17466 7.24341 5.31216C7.29966 5.44341 7.33091 5.57466 7.33091 5.69341C7.33091 5.84341 7.28716 5.99341 7.19966 6.13716C7.11841 6.28091 6.99966 6.43091 6.84966 6.58091L6.37466 7.07466C6.30591 7.14341 6.27466 7.22466 6.27466 7.32466C6.27466 7.37466 6.28091 7.41841 6.29341 7.46841C6.31216 7.51841 6.33091 7.55591 6.34341 7.59341C6.45591 7.79966 6.64966 8.06841 6.92466 8.39341C7.20591 8.71841 7.50591 9.04966 7.83091 9.38091C7.83716 9.38716 9.00689 10.5858 9.01314 10.5921Z" fill="#292D32"/>
</svg>
