<svg width="28" height="19" viewBox="0 0 28 19" fill="none" xmlns="http://www.w3.org/2000/svg">
<rect width="27.528" height="18.823" rx="9.4115" fill="#1FBE8E"/>
<path d="M9.25906 13.9114L9.25906 6.13963H8.26867L8.56515 5.07984H10.3188L10.3188 13.9114H9.25906ZM15.1033 14.0754C14.5777 14.0754 14.1066 13.9576 13.6903 13.7221C13.274 13.4824 12.9165 13.1523 12.6179 12.7317C12.3193 12.3112 12.0922 11.8255 11.9366 11.2745C11.781 10.7194 11.7032 10.1264 11.7032 9.49561C11.7032 8.86479 11.781 8.27181 11.9366 7.71669C12.0922 7.16156 12.3193 6.67583 12.6179 6.25948C12.9165 5.83893 13.274 5.5109 13.6903 5.2754C14.1066 5.03568 14.5777 4.91583 15.1033 4.91583C15.6248 4.91583 16.0937 5.03568 16.5101 5.2754C16.9306 5.5109 17.286 5.83893 17.5762 6.25948C17.8706 6.67583 18.0956 7.16156 18.2512 7.71669C18.411 8.27181 18.4909 8.86479 18.4909 9.49561C18.4909 10.1264 18.411 10.7194 18.2512 11.2745C18.0956 11.8255 17.8706 12.3112 17.5762 12.7317C17.286 13.1523 16.9306 13.4824 16.5101 13.7221C16.0937 13.9576 15.6248 14.0754 15.1033 14.0754ZM15.1033 13.0156C15.629 13.0156 16.0685 12.8537 16.4218 12.5299C16.7792 12.2018 17.0463 11.7708 17.2229 11.2367C17.3995 10.7026 17.4879 10.1222 17.4879 9.49561C17.4879 8.83535 17.3953 8.24027 17.2103 7.71038C17.0295 7.17628 16.7603 6.75363 16.4028 6.44242C16.0496 6.13122 15.6164 5.97561 15.1033 5.97561C14.6996 5.97561 14.3464 6.07024 14.0436 6.25948C13.745 6.44873 13.4968 6.70737 13.2992 7.0354C13.1015 7.36342 12.9522 7.73982 12.8513 8.16457C12.7546 8.58512 12.7062 9.0288 12.7062 9.49561C12.7062 10.1222 12.7966 10.7047 12.9775 11.243C13.1583 11.7771 13.4254 12.206 13.7786 12.5299C14.1361 12.8537 14.5777 13.0156 15.1033 13.0156Z" fill="black"/>
</svg>
