<svg width="21" height="21" viewBox="0 0 21 21" fill="none" xmlns="http://www.w3.org/2000/svg">
<path d="M6.18311 2.07544L4.56046 2.07544C2.69014 2.07544 1.70801 3.05757 1.70801 4.91935V6.542C1.70801 8.40378 2.69014 9.38592 4.55192 9.38592H6.17457C8.03635 9.38592 9.01849 8.40378 9.01849 6.542V4.91935C9.02703 3.05757 8.04489 2.07544 6.18311 2.07544Z" fill="#1FBE8E"/>
<path d="M15.9447 2.07544L14.322 2.07544C12.4602 2.07544 11.4781 3.05757 11.4781 4.91935V6.542C11.4781 8.40378 12.4602 9.38592 14.322 9.38592H15.9447C17.8064 9.38592 18.7886 8.40378 18.7886 6.542V4.91935C18.7886 3.05757 17.8064 2.07544 15.9447 2.07544Z" fill="#1FBE8E"/>
<path d="M15.9447 11.8369H14.322C12.4602 11.8369 11.4781 12.819 11.4781 14.6808V16.3035C11.4781 18.1653 12.4602 19.1474 14.322 19.1474H15.9447C17.8064 19.1474 18.7886 18.1653 18.7886 16.3035V14.6808C18.7886 12.819 17.8064 11.8369 15.9447 11.8369Z" fill="#1FBE8E"/>
<path d="M6.18311 11.8369H4.56046C2.69014 11.8369 1.70801 12.819 1.70801 14.6808V16.3035C1.70801 18.1738 2.69014 19.1559 4.55192 19.1559H6.17457C8.03635 19.1559 9.01849 18.1738 9.01849 16.312V14.6894C9.02703 12.819 8.04489 11.8369 6.18311 11.8369Z" fill="#1FBE8E"/>
</svg>
