<svg width="21" height="22" viewBox="0 0 21 22" fill="none" xmlns="http://www.w3.org/2000/svg">
<path d="M13.4936 2.41324C13.1435 2.06309 12.5371 2.30222 12.5371 2.78901V5.76957C12.5371 7.01645 13.5961 8.04982 14.8857 8.04982C15.697 8.05836 16.8243 8.05836 17.7894 8.05836C18.2762 8.05836 18.5324 7.48616 18.1908 7.14455C16.961 5.90621 14.7576 3.6772 13.4936 2.41324Z" fill="#333333"/>
<path d="M17.5076 9.22837H15.0394C13.0154 9.22837 11.3671 7.5801 11.3671 5.55605V3.08791C11.3671 2.6182 10.9828 2.23389 10.5131 2.23389L6.892 2.23389C4.2616 2.23389 2.13507 3.94194 2.13507 6.99082L2.13507 14.5575C2.13507 17.6064 4.2616 19.3144 6.892 19.3144H13.6047C16.2351 19.3144 18.3616 17.6064 18.3616 14.5575V10.0824C18.3616 9.61268 17.9773 9.22837 17.5076 9.22837ZM9.82132 15.6848L6.40521 15.6848C6.05506 15.6848 5.76469 15.3945 5.76469 15.0443C5.76469 14.6941 6.05506 14.4038 6.40521 14.4038L9.82132 14.4038C10.1715 14.4038 10.4618 14.6941 10.4618 15.0443C10.4618 15.3945 10.1715 15.6848 9.82132 15.6848ZM11.5294 12.2687L6.40521 12.2687C6.05506 12.2687 5.76469 11.9783 5.76469 11.6282C5.76469 11.278 6.05506 10.9877 6.40521 10.9877L11.5294 10.9877C11.8795 10.9877 12.1699 11.278 12.1699 11.6282C12.1699 11.9783 11.8795 12.2687 11.5294 12.2687Z" fill="#333333"/>
</svg>
