<svg width="13" height="13" viewBox="0 0 13 13" fill="none" xmlns="http://www.w3.org/2000/svg">
<path d="M11.1692 4.57716C10.6005 2.07466 8.41755 0.947998 6.50005 0.947998C6.50005 0.947998 6.50005 0.947998 6.49464 0.947998C4.58255 0.947998 2.39422 2.06925 1.82547 4.57175C1.19172 7.36675 2.90339 9.73383 4.45255 11.2234C5.02672 11.7759 5.76339 12.0522 6.50005 12.0522C7.23672 12.0522 7.97339 11.7759 8.54214 11.2234C10.0913 9.73383 11.803 7.37216 11.1692 4.57716ZM6.50005 7.29092C5.55755 7.29092 4.7938 6.52716 4.7938 5.58467C4.7938 4.64217 5.55755 3.87841 6.50005 3.87841C7.44255 3.87841 8.2063 4.64217 8.2063 5.58467C8.2063 6.52716 7.44255 7.29092 6.50005 7.29092Z" fill="#292D32"/>
</svg>
