<svg width="21" height="22" viewBox="0 0 21 22" fill="none" xmlns="http://www.w3.org/2000/svg">
<path d="M14.9969 2.30713L5.47451 2.30713C3.39923 2.30713 1.70825 3.9981 1.70825 6.07339L1.70825 11.6246V11.7954C1.70825 13.8792 3.39923 15.5616 5.47451 15.5616H8.75398C9.22369 15.5616 9.60801 15.946 9.60801 16.4157V17.2441C9.60801 17.7138 9.22369 18.0981 8.75398 18.0981H6.68723C6.33708 18.0981 6.04671 18.3885 6.04671 18.7386C6.04671 19.0888 6.32854 19.3877 6.68723 19.3877H13.8184C14.1685 19.3877 14.4589 19.0973 14.4589 18.7472C14.4589 18.397 14.1685 18.1066 13.8184 18.1066H11.7516C11.2819 18.1066 10.8976 17.7223 10.8976 17.2526V16.4242C10.8976 15.9545 11.2819 15.5702 11.7516 15.5702H15.0055C17.0893 15.5702 18.7717 13.8792 18.7717 11.8039V11.6331V6.08193C18.7632 3.9981 17.0722 2.30713 14.9969 2.30713Z" fill="#333333"/>
</svg>
