<svg width="22" height="22" viewBox="0 0 22 22" fill="none" xmlns="http://www.w3.org/2000/svg">
<path d="M19.2408 8.90075C18.9292 8.77242 18.5167 8.70825 18.0033 8.70825H13.1633C11.5683 8.70825 11 9.27659 11 10.8899V17.9849C11 18.5166 11.0642 18.9291 11.2017 19.2499C11.4858 19.9099 12.0908 20.1666 13.1633 20.1666H18.0033C19.5983 20.1666 20.1667 19.5891 20.1667 17.9849V10.8899C20.1667 9.79909 19.91 9.18492 19.2408 8.90075ZM16.5 18.1041H14.6667C14.6483 18.1041 14.6208 18.1041 14.6025 18.0949C14.465 18.0858 14.3458 18.0399 14.245 17.9483C14.08 17.8291 13.9792 17.6366 13.9792 17.4166C13.9792 17.0408 14.2908 16.7291 14.6667 16.7291H16.5C16.8758 16.7291 17.1875 17.0408 17.1875 17.4166C17.1875 17.7924 16.8758 18.1041 16.5 18.1041Z" fill="#292D32"/>
<path d="M19.2409 5.67409V6.41659C19.2409 6.92075 18.8284 7.33325 18.3242 7.33325H13.1634C10.8167 7.33325 9.62503 8.53409 9.62503 10.8899V19.2499C9.62503 19.7541 9.21253 20.1666 8.70836 20.1666H6.92086C6.5542 20.1666 6.26086 19.8733 6.26086 19.5158C6.26086 19.1491 6.5542 18.8649 6.92086 18.8649H8.70836V15.3541H5.50003C3.46503 15.2533 1.84253 13.5758 1.84253 11.5133V5.67409C1.84253 3.55659 3.56586 1.83325 5.69253 1.83325H15.4C17.5175 1.83325 19.2409 3.55659 19.2409 5.67409Z" fill="#292D32"/>
</svg>
