<svg width="22" height="22" viewBox="0 0 22 22" fill="none" xmlns="http://www.w3.org/2000/svg">
<path d="M17.1598 3.92466C17.1598 3.91586 17.1598 3.90706 17.1422 3.89826C16.9486 3.65186 16.6934 3.51986 16.3942 3.51986C15.9278 3.51986 15.3646 3.82786 14.7574 4.47905C14.0358 5.25344 12.927 5.19184 12.2934 4.34705L11.4046 3.16787C11.0526 2.69267 10.5863 2.45508 10.1199 2.45508C9.65346 2.45508 9.18707 2.69267 8.83507 3.16787L7.93749 4.35585C7.31269 5.19184 6.21271 5.25344 5.49112 4.48785L5.48232 4.47905C4.48793 3.41427 3.59914 3.25587 3.09755 3.89826C3.07995 3.90706 3.07995 3.91586 3.07995 3.92466C2.76315 4.60225 2.63995 5.55264 2.63995 6.89022V15.6197C2.63995 16.9573 2.76315 17.9077 3.07995 18.5853C3.07995 18.5941 3.08875 18.6117 3.09755 18.6205C3.60794 19.2541 4.48793 19.0957 5.48232 18.0309L5.49112 18.0221C6.21271 17.2565 7.31269 17.3181 7.93749 18.1541L8.83507 19.3421C9.18707 19.8173 9.65346 20.0549 10.1199 20.0549C10.5863 20.0549 11.0526 19.8173 11.4046 19.3421L12.2934 18.1629C12.927 17.3181 14.0358 17.2565 14.7574 18.0309C15.3646 18.6821 15.9278 18.9901 16.3942 18.9901C16.6934 18.9901 16.9486 18.8669 17.1422 18.6205C17.151 18.6117 17.1598 18.5941 17.1598 18.5853C17.4766 17.9077 17.5998 16.9573 17.5998 15.6197V6.89022C17.5998 5.55264 17.4766 4.60225 17.1598 3.92466ZM12.3198 13.4549H7.0399C6.6791 13.4549 6.37991 13.1557 6.37991 12.7949C6.37991 12.4341 6.6791 12.135 7.0399 12.135H12.3198C12.6806 12.135 12.9798 12.4341 12.9798 12.7949C12.9798 13.1557 12.6806 13.4549 12.3198 13.4549ZM14.0798 10.375H7.0399C6.6791 10.375 6.37991 10.0758 6.37991 9.71498C6.37991 9.35419 6.6791 9.05499 7.0399 9.05499H14.0798C14.4406 9.05499 14.7398 9.35419 14.7398 9.71498C14.7398 10.0758 14.4406 10.375 14.0798 10.375Z" fill="#292D32"/>
</svg>
