<svg width="11" height="11" viewBox="0 0 11 11" fill="none" xmlns="http://www.w3.org/2000/svg">
<path d="M8.0346 3.56133C8.00252 3.55675 7.97043 3.55675 7.93835 3.56133C7.22793 3.53841 6.66418 2.95633 6.66418 2.24133C6.66418 1.51258 7.25543 0.916748 7.98877 0.916748C8.71752 0.916748 9.31335 1.508 9.31335 2.24133C9.30877 2.95633 8.74502 3.53841 8.0346 3.56133Z" fill="#292D32"/>
<path d="M9.52869 6.73744C9.01536 7.08119 8.29578 7.20952 7.63119 7.12244C7.80536 6.74661 7.89703 6.32952 7.90161 5.88952C7.90161 5.43119 7.80078 4.99577 7.60828 4.61536C8.28661 4.52369 9.00619 4.65202 9.52411 4.99577C10.2483 5.47244 10.2483 6.25619 9.52869 6.73744Z" fill="#292D32"/>
<path d="M2.95166 3.56133C2.98374 3.55675 3.01582 3.55675 3.04791 3.56133C3.75832 3.53841 4.32207 2.95633 4.32207 2.24133C4.32207 1.508 3.73082 0.916748 2.99749 0.916748C2.26874 0.916748 1.67749 1.508 1.67749 2.24133C1.67749 2.95633 2.24124 3.53841 2.95166 3.56133Z" fill="#292D32"/>
<path d="M3.00214 5.88961C3.00214 6.33419 3.09839 6.75586 3.27255 7.13628C2.6263 7.20503 1.95255 7.06753 1.45755 6.74211C0.733387 6.26086 0.733387 5.47711 1.45755 4.99586C1.94797 4.66586 2.64005 4.53294 3.29089 4.60628C3.10297 4.99128 3.00214 5.42669 3.00214 5.88961Z" fill="#292D32"/>
<path d="M5.55495 7.27375C5.51828 7.26917 5.47703 7.26917 5.43578 7.27375C4.59245 7.24625 3.9187 6.55417 3.9187 5.70167C3.92328 4.83083 4.62453 4.125 5.49995 4.125C6.37078 4.125 7.07662 4.83083 7.07662 5.70167C7.07203 6.55417 6.40287 7.24625 5.55495 7.27375Z" fill="#292D32"/>
<path d="M4.06545 8.22246C3.37337 8.68538 3.37337 9.44621 4.06545 9.90454C4.85378 10.4316 6.14628 10.4316 6.93462 9.90454C7.6267 9.44163 7.6267 8.68079 6.93462 8.22246C6.15087 7.69538 4.85837 7.69538 4.06545 8.22246Z" fill="#292D32"/>
</svg>
