<svg width="21" height="21" viewBox="0 0 21 21" fill="none" xmlns="http://www.w3.org/2000/svg">
<path d="M13.8268 2.00244L6.67003 2.00244C3.56137 2.00244 1.70813 3.85568 1.70813 6.96434L1.70813 14.1126C1.70813 17.2298 3.56137 19.083 6.67003 19.083H13.8182C16.9269 19.083 18.7801 17.2298 18.7801 14.1211V6.96434C18.7887 3.85568 16.9354 2.00244 13.8268 2.00244ZM8.46349 14.1211C8.46349 14.6677 8.01939 15.1118 7.46428 15.1118C6.9177 15.1118 6.4736 14.6677 6.4736 14.1211L6.4736 11.337C6.4736 10.7904 6.9177 10.3463 7.46428 10.3463C8.01939 10.3463 8.46349 10.7904 8.46349 11.337L8.46349 14.1211ZM14.0232 14.1211C14.0232 14.6677 13.5791 15.1118 13.0325 15.1118C12.4774 15.1118 12.0333 14.6677 12.0333 14.1211L12.0333 6.96434C12.0333 6.41776 12.4774 5.97367 13.0325 5.97367C13.5791 5.97367 14.0232 6.41776 14.0232 6.96434L14.0232 14.1211Z" fill="#333333"/>
</svg>
