<svg width="19" height="17" viewBox="0 0 19 17" fill="none" xmlns="http://www.w3.org/2000/svg">
<path d="M12.0061 16.6509C11.8362 16.6509 11.6664 16.6267 11.4966 16.5862C10.9951 16.4487 10.5746 16.1333 10.3077 15.6885L10.2107 15.5268C9.73349 14.7018 9.0784 14.7018 8.60124 15.5268L8.51228 15.6804C8.24539 16.1333 7.82484 16.4568 7.32342 16.5862C6.81391 16.7237 6.28822 16.6509 5.84341 16.384L4.45236 15.5834C3.95902 15.3003 3.60318 14.8393 3.44951 14.2813C3.30394 13.7232 3.37673 13.149 3.65979 12.6557C3.89432 12.2432 3.95902 11.8712 3.82154 11.6367C3.68405 11.4021 3.33629 11.2647 2.85913 11.2647C1.67835 11.2647 0.715942 10.3022 0.715942 9.12147V7.69807C0.715942 6.5173 1.67835 5.55489 2.85913 5.55489C3.33629 5.55489 3.68405 5.4174 3.82154 5.18286C3.95902 4.94833 3.90241 4.5763 3.65979 4.16384C3.37673 3.6705 3.30394 3.0882 3.44951 2.53825C3.59509 1.98022 3.95094 1.51923 4.45236 1.23617L5.8515 0.435507C6.76538 -0.106355 7.97042 0.209057 8.52037 1.13912L8.61742 1.30087C9.09458 2.12579 9.74967 2.12579 10.2268 1.30087L10.3158 1.14721C10.8657 0.209057 12.0708 -0.106355 12.9927 0.443595L14.3838 1.24426C14.8771 1.52732 15.233 1.9883 15.3866 2.54634C15.5322 3.10438 15.4594 3.67859 15.1764 4.17193C14.9418 4.58439 14.8771 4.95641 15.0146 5.19095C15.1521 5.42549 15.4999 5.56297 15.977 5.56297C17.1578 5.56297 18.1202 6.52538 18.1202 7.70616V9.12956C18.1202 10.3103 17.1578 11.2727 15.977 11.2727C15.4999 11.2727 15.1521 11.4102 15.0146 11.6448C14.8771 11.8793 14.9337 12.2513 15.1764 12.6638C15.4594 13.1571 15.5403 13.7394 15.3866 14.2894C15.2411 14.8474 14.8852 15.3084 14.3838 15.5915L12.9847 16.3921C12.6773 16.562 12.3457 16.6509 12.0061 16.6509ZM9.40999 13.6585C10.1298 13.6585 10.801 14.1114 11.262 14.9121L11.351 15.0658C11.448 15.2356 11.6098 15.3569 11.8039 15.4054C11.998 15.454 12.1921 15.4297 12.3538 15.3327L13.753 14.5239C13.9632 14.4026 14.125 14.2004 14.1897 13.9578C14.2544 13.7152 14.222 13.4644 14.1007 13.2542C13.6397 12.4616 13.5831 11.6448 13.939 11.022C14.2948 10.3993 15.0308 10.0434 15.9528 10.0434C16.4704 10.0434 16.8828 9.63098 16.8828 9.11338V7.68998C16.8828 7.18047 16.4704 6.75992 15.9528 6.75992C15.0308 6.75992 14.2948 6.40407 13.939 5.78134C13.5831 5.1586 13.6397 4.34176 14.1007 3.54919C14.222 3.33891 14.2544 3.0882 14.1897 2.84558C14.125 2.60295 13.9713 2.40885 13.7611 2.27945L12.3619 1.47879C12.0142 1.26852 11.5532 1.38983 11.3429 1.74568L11.2539 1.89934C10.793 2.7 10.1217 3.1529 9.4019 3.1529C8.68212 3.1529 8.01086 2.7 7.54987 1.89934L7.46091 1.73759C7.25872 1.39792 6.80582 1.27661 6.45806 1.47879L5.05892 2.28754C4.84865 2.40885 4.6869 2.61104 4.6222 2.85367C4.5575 3.09629 4.58985 3.347 4.71116 3.55728C5.17215 4.34985 5.22876 5.16669 4.87291 5.78942C4.51706 6.41216 3.7811 6.76801 2.85913 6.76801C2.34153 6.76801 1.92907 7.18047 1.92907 7.69807L1.92907 9.12147C1.92907 9.63098 2.34153 10.0515 2.85913 10.0515C3.7811 10.0515 4.51706 10.4074 4.87291 11.0301C5.22876 11.6529 5.17215 12.4697 4.71116 13.2623C4.58985 13.4725 4.5575 13.7232 4.6222 13.9659C4.6869 14.2085 4.84056 14.4026 5.05084 14.532L6.44997 15.3327C6.61981 15.4378 6.82199 15.4621 7.00801 15.4135C7.20211 15.365 7.36386 15.2356 7.46899 15.0658L7.55796 14.9121C8.01894 14.1195 8.6902 13.6585 9.40999 13.6585Z" fill="#101010"/>
</svg>
