<svg width="16" height="16" viewBox="0 0 16 16" fill="none" xmlns="http://www.w3.org/2000/svg">
<path d="M13 5.33333C13.9205 5.33333 14.6667 4.58714 14.6667 3.66667C14.6667 2.74619 13.9205 2 13 2C12.0796 2 11.3334 2.74619 11.3334 3.66667C11.3334 4.58714 12.0796 5.33333 13 5.33333Z" fill="#292D32"/>
<path d="M13 5.33333C13.9205 5.33333 14.6667 4.58714 14.6667 3.66667C14.6667 2.74619 13.9205 2 13 2C12.0796 2 11.3334 2.74619 11.3334 3.66667C11.3334 4.58714 12.0796 5.33333 13 5.33333Z" fill="#292D32"/>
<path d="M13.8134 6.20659C13.3467 6.35325 12.8334 6.37992 12.3 6.24658C11.4067 6.01325 10.68 5.29992 10.4334 4.40659C10.3134 3.97325 10.3067 3.54659 10.38 3.15992C10.4667 2.73325 10.1667 2.33325 9.74004 2.33325H4.66671C2.66671 2.33325 1.33337 3.33325 1.33337 5.66658V10.3333C1.33337 12.6666 2.66671 13.6666 4.66671 13.6666H11.3334C13.3334 13.6666 14.6667 12.6666 14.6667 10.3333V6.83992C14.6667 6.39992 14.24 6.06659 13.8134 6.20659ZM10.3467 7.43325L9.56004 8.05992C9.12004 8.41325 8.56004 8.58659 8.00004 8.58659C7.44004 8.58659 6.87337 8.41325 6.44004 8.05992L4.35337 6.39325C4.14004 6.21992 4.10671 5.89992 4.27337 5.68658C4.44671 5.47325 4.76004 5.43325 4.97337 5.60659L7.06004 7.27325C7.56671 7.67992 8.42671 7.67992 8.93337 7.27325L9.72004 6.64658C9.93337 6.47325 10.2534 6.50659 10.42 6.72658C10.5934 6.93992 10.56 7.25992 10.3467 7.43325Z" fill="#292D32"/>
</svg>
